<?xml version="1.0" encoding="UTF-8" standalone="no"?>
<!DOCTYPE svg PUBLIC "-//W3C//DTD SVG 1.1//EN" "http://www.w3.org/Graphics/SVG/1.1/DTD/svg11.dtd">
<svg width="100%" height="100%" viewBox="0 0 2084 2084" version="1.1" xmlns="http://www.w3.org/2000/svg" xmlns:xlink="http://www.w3.org/1999/xlink" xml:space="preserve" xmlns:serif="http://www.serif.com/" style="fill-rule:evenodd;clip-rule:evenodd;stroke-linejoin:round;stroke-miterlimit:2;">
    <g transform="matrix(1,0,0,1,-4901,-13056)">
        <g transform="matrix(1,0,0,1,-12.7759,-23.0148)">
            <g id="Cove-icon-colour" serif:id="Cove icon colour" transform="matrix(0.937866,0,0,0.863737,-2136.84,11926.3)">
                <rect x="7518" y="1335" width="2221" height="2412" style="fill:none;"/>
                <clipPath id="_clip1">
                    <rect x="7518" y="1335" width="2221" height="2412"/>
                </clipPath>
                <g clip-path="url(#_clip1)">
                    <g transform="matrix(1.46944,0,-2.62851e-32,1.95184,-650.248,977.976)">
                        <rect x="5558.75" y="182.917" width="1511.7" height="1235.76" style="fill:white;"/>
                    </g>
                    <g>
                        <g transform="matrix(1.05504,0.167482,-0.154244,1.14558,-1501.77,-20805.3)">
                            <path d="M12591.9,18383.1C12590.8,18375.5 12591.2,18367.7 12593.2,18360.2C12593.2,18360.2 12593.2,18360.2 12593.2,18360.2C12603.9,18314.4 12655.1,18287 12696.1,18301.5C12714.5,18308 12731.5,18322.5 12741.6,18348.3C12761.3,18395.8 12773.1,18446.6 12776.3,18497.9C12786.1,18653.5 12715.2,18809.7 12589,18902.2C12550.9,18930 12509.6,18952.5 12465.2,18968.2C12408.2,18988.2 12347.4,18997 12287.1,18993.9C12255.1,18992.3 12223.2,18987.4 12192.1,18979.3C12185.3,18977.5 12180.7,18971.3 12180.9,18964.2C12181.1,18957.2 12186.1,18951.2 12193,18949.8C12192.9,18949.7 12192.9,18949.7 12192.9,18949.7C12456.1,18895.4 12629.2,18645.5 12591.9,18383.1Z" style="fill:rgb(245,174,112);"/>
                        </g>
                        <g transform="matrix(1.05504,0.167482,-0.154244,1.14558,-1501.77,-20805.3)">
                            <path d="M12176.1,18868.1C12055.9,18892.9 11934.7,18830.7 11884.7,18718.6C11841.3,18621.3 11831,18510 11859.7,18404.6C11876.5,18342.7 11906.1,18286.2 11945.4,18235.7C11959.6,18217.6 11980.6,18204.3 12003.6,18201.1C12044.1,18195.5 12080.6,18222.3 12086.7,18262.6C12088.1,18271.7 12087.9,18280.8 12086.5,18289.9C12084.9,18408.4 12167.5,18515.5 12282.8,18543.9C12314.9,18551.8 12348.6,18553.5 12381.4,18548.8C12414.9,18544 12447.5,18532.5 12476.6,18515C12476.6,18515 12476.6,18515 12476.6,18515C12483.2,18511.1 12491.5,18511.4 12497.8,18515.8C12504.1,18520.3 12507.1,18528 12505.6,18535.5C12473.6,18697.5 12347.8,18832.6 12176.1,18868.1C12176.1,18868.1 12176.1,18868.1 12176.1,18868.1Z" style="fill:rgb(134,220,220);"/>
                        </g>
                    </g>
                </g>
            </g>
        </g>
    </g>
</svg>
